# xmcd
#
# Track frame offsets:
#	150
#	22425
#	51013
#	72500
#	93157
#	111001
#	130356
#	149290
#	171919
#	187829
#
# Disc length: 2727 seconds
#
# Revision: 0
# Processed by: cddbd v1.5PL3 Copyright (c) Steve Scherf et al.
# Submitted via: dBpowerAMP V4.0
#
DISCID=8f0aa50a
DTITLE=Roy HytowerP - Blues By Design
DYEAR=2001
DGENRE=Blues
TTITLE0=Love by Design
TTITLE1=Daddy Jack
TTITLE2=Everybody Affair
TTITLE3=Weekend Blues
TTITLE4=Conjure Woman, Conjure Man
TTITLE5=Going to Mobile
TTITLE6=Squeeze Me
TTITLE7=Dirty Stinkin' Blues
TTITLE8=My Baby Made Love to Me
TTITLE9=You Please Me
EXTD=
EXTT0=
EXTT1=
EXTT2=
EXTT3=
EXTT4=
EXTT5=
EXTT6=
EXTT7=
EXTT8=
EXTT9=
PLAYORDER=
